# xmcd CD database file
#
# Track frame offsets:
#	150
#	27735
#	43412
#	64596
#	89830
#	110109
#	131223
#	148814
#	162038
#	184941
#
# Disc length: 2746 seconds
#
# Revision: 0
# Processed by: cddbd v1.5.1PL0 Copyright (c) Steve Scherf et al.
# Submitted via: CDex 1.51
#
DISCID=a10ab80a
DTITLE=Sina Vodjani and Sojiro - Shambala
DYEAR=1983
DGENRE=New Age
TTITLE0=Forest
TTITLE1=Harmony
TTITLE2=Inner Light
TTITLE3=Morning Glow
TTITLE4=Pastel Green
TTITLE5=Poem
TTITLE6=Spiritual Scene
TTITLE7=Spring Breeze
TTITLE8=Tao
TTITLE9=Winter Flow
EXTD=YEAR: 1983
EXTT0=
EXTT1=
EXTT2=
EXTT3=
EXTT4=
EXTT5=
EXTT6=
EXTT7=
EXTT8=
EXTT9=
PLAYORDER=
